<?xml version="1.0" encoding="UTF-8" standalone="no" ?>
<!DOCTYPE svg PUBLIC "-//W3C//DTD SVG 1.1//EN" "http://www.w3.org/Graphics/SVG/1.1/DTD/svg11.dtd">
<svg xmlns="http://www.w3.org/2000/svg" xmlns:xlink="http://www.w3.org/1999/xlink" version="1.1" width="24" height="24" viewBox="0 0 24 24" xml:space="preserve">
<desc>Created with Fabric.js 5.3.0</desc>
<defs>
</defs>
<g transform="matrix(1.2577651495 0 0 1.2577651495 11.9928105672 11.9785808858)" id="VYdWmVtIlVWcIRL6FYYTb"  >
<path style="stroke: none; stroke-width: 1; stroke-dasharray: none; stroke-linecap: butt; stroke-dashoffset: 0; stroke-linejoin: miter; stroke-miterlimit: 4; fill: rgb(255,82,162); fill-rule: nonzero; opacity: 1;"  transform=" translate(-12, -12)" d="M 5 3 C 3.89 3 3 3.89 3 5 L 3 19 C 3 20.11 3.89 21 5 21 L 19 21 C 20.11 21 21 20.11 21 19 L 21 5 C 21 3.89 20.11 3 19 3 L 5 3 M 5 5 L 19 5 L 19 19 L 5 19 L 5 5 M 7 7 L 7 9 L 17 9 L 17 7 L 7 7 M 7 11 L 7 13 L 17 13 L 17 11 L 7 11 M 7 15 L 7 17 L 14 17 L 14 15 L 7 15 Z" stroke-linecap="round" />
</g>
</svg>