<?xml version="1.0" encoding="UTF-8" standalone="no" ?>
<!DOCTYPE svg PUBLIC "-//W3C//DTD SVG 1.1//EN" "http://www.w3.org/Graphics/SVG/1.1/DTD/svg11.dtd">
<svg xmlns="http://www.w3.org/2000/svg" xmlns:xlink="http://www.w3.org/1999/xlink" version="1.1" width="24" height="24" viewBox="0 0 24 24" xml:space="preserve">
<desc>Created with Fabric.js 5.3.0</desc>
<defs>
</defs>
<g transform="matrix(1.1408290909 0 0 1.1408290909 11.9864392852 11.9850118415)" id="IAUBSz0Rkv1WP5LHN1I0z"  >
<path style="stroke: none; stroke-width: 1; stroke-dasharray: none; stroke-linecap: butt; stroke-dashoffset: 0; stroke-linejoin: miter; stroke-miterlimit: 4; fill: rgb(52,79,245); fill-rule: nonzero; opacity: 1;"  transform=" translate(-12, -11)" d="M 19 19 L 5 19 L 5 8 L 19 8 M 16 1 L 16 3 L 8 3 L 8 1 L 6 1 L 6 3 L 5 3 C 3.9 3 3 3.9 3 5 L 3 19 C 3 20.11 3.9 21 5 21 L 19 21 C 20.11 21 21 20.11 21 19 L 21 5 C 21 3.9 20.11 3 19 3 L 18 3 L 18 1 M 10.88 12 L 7.27 12 L 10.19 14.11 L 9.08 17.56 L 12 15.43 L 14.92 17.56 L 13.8 14.12 L 16.72 12 L 13.12 12 L 12 8.56 L 10.88 12 Z" stroke-linecap="round" />
</g>
</svg>