<?xml version="1.0" encoding="UTF-8" standalone="no" ?>
<!DOCTYPE svg PUBLIC "-//W3C//DTD SVG 1.1//EN" "http://www.w3.org/Graphics/SVG/1.1/DTD/svg11.dtd">
<svg xmlns="http://www.w3.org/2000/svg" xmlns:xlink="http://www.w3.org/1999/xlink" version="1.1" width="24" height="24" viewBox="0 0 24 24" xml:space="preserve">
<desc>Created with Fabric.js 5.3.0</desc>
<defs>
</defs>
<g transform="matrix(1.1423833056 0 0 1.1423833056 12.0036152292 12.0036152292)" id="y6EO3McZOeMiRLxDXjUD0"  >
<path style="stroke: none; stroke-width: 1; stroke-dasharray: none; stroke-linecap: butt; stroke-dashoffset: 0; stroke-linejoin: miter; stroke-miterlimit: 4; fill: rgb(255,115,29); fill-rule: nonzero; opacity: 1;"  transform=" translate(-12, -12)" d="M 12 20 C 7.581722001353652 20 4 16.418277998646346 4 12 C 4 7.581722001353652 7.581722001353652 4 12 4 C 16.418277998646346 4 20 7.581722001353651 20 11.999999999999998 C 20 16.418277998646346 16.418277998646346 20 12 20 M 12 2 C 6.477152501692066 2 2 6.477152501692066 2 12 C 2 17.522847498307932 6.477152501692066 22 12 22 C 17.522847498307932 22 22 17.522847498307932 22 12 C 22 6.477152501692066 17.522847498307932 2 12 2 M 16.24 7.76 C 15.07 6.58 13.53 6 12 6 L 12 12 L 7.76 16.24 C 10.1 18.58 13.9 18.58 16.24 16.24 C 18.59 13.9 18.59 10.1 16.24 7.76 Z" stroke-linecap="round" />
</g>
</svg>