<?xml version="1.0" encoding="UTF-8" standalone="no" ?>
<!DOCTYPE svg PUBLIC "-//W3C//DTD SVG 1.1//EN" "http://www.w3.org/Graphics/SVG/1.1/DTD/svg11.dtd">
<svg xmlns="http://www.w3.org/2000/svg" xmlns:xlink="http://www.w3.org/1999/xlink" version="1.1" width="512pt" height="512pt" viewBox="0 2.842170943040401e-14 511.99997999999994 511.99997999999994" xml:space="preserve">
<desc>Created with Fabric.js 5.3.0</desc>
<defs>
</defs>
<g transform="matrix(0.0997330859 0 0 -0.0997330859 256.2518934016 259.9356024323)" id="tCBbfyKpOHwGF7Sdb1bOf"  >
<path style="stroke: none; stroke-width: 1; stroke-dasharray: none; stroke-linecap: butt; stroke-dashoffset: 0; stroke-linejoin: miter; stroke-miterlimit: 4; fill: rgb(187,224,249); fill-rule: nonzero; opacity: 1;"  transform=" translate(-2560, -2563.5)" d="M 995 4306 C 430 4052 44 3873 28 3857 C 11 3842 0 3821 0 3805 C 0 3775 26 3747 401 3384 L 617 3175 L 463 2905 C 378 2757 299 2615 288 2592 C 255 2520 265 2508 463 2394 L 635 2295 L 638 1899 C 640 1504 640 1503 663 1483 C 675 1472 1099 1223 1605 930 C 2342 503 2532 397 2560 397 C 2588 397 2778 503 3515 930 C 4021 1223 4445 1472 4457 1483 C 4480 1503 4480 1504 4482 1899 L 4485 2295 L 4657 2394 C 4855 2508 4865 2520 4832 2592 C 4821 2615 4742 2757 4657 2905 L 4503 3175 L 4719 3384 C 5089 3743 5120 3775 5120 3803 C 5120 3817 5110 3840 5098 3854 C 5074 3880 3195 4730 3161 4730 C 3136 4730 3124 4719 2828 4458 C 2687 4332 2566 4230 2560 4230 C 2554 4230 2433 4332 2292 4458 C 1991 4725 1984 4730 1956 4729 C 1945 4729 1512 4539 995 4306 z M 2185 4350 C 2313 4237 2419 4143 2419 4140 C 2420 4131 745 3290 729 3291 C 711 3291 213 3776 222 3785 C 235 3798 1925 4558 1938 4557 C 1946 4556 2057 4463 2185 4350 z M 4048 4172 C 4512 3963 4895 3789 4898 3785 C 4902 3782 4790 3667 4650 3530 L 4395 3282 L 3548 3708 C 3081 3942 2700 4137 2701 4140 C 2701 4143 2808 4239 2938 4353 C 3082 4479 3181 4559 3190 4556 C 3198 4554 3585 4381 4048 4172 z M 2480 3486 L 2480 2983 L 2188 2814 C 2027 2721 1890 2644 1883 2642 C 1869 2638 879 3182 886 3190 C 893 3196 2462 3987 2473 3989 C 2477 3989 2480 3763 2480 3486 z M 3448 3587 C 3885 3368 4240 3187 4238 3185 C 4221 3168 3246 2640 3236 2642 C 3230 2644 3093 2721 2932 2814 L 2640 2983 L 2640 3487 C 2640 3765 2643 3990 2648 3988 C 2652 3987 3012 3806 3448 3587 z M 1581 2624 C 2037 2373 2417 2162 2426 2156 C 2440 2145 2420 2115 2259 1902 C 2158 1770 2071 1661 2067 1661 C 2051 1660 460 2571 460 2581 C 460 2589 688 2997 726 3058 C 734 3070 743 3080 747 3080 C 751 3080 1126 2875 1581 2624 z M 4522 2834 C 4597 2703 4659 2590 4659 2583 C 4660 2572 3072 1659 3053 1661 C 3038 1661 2678 2142 2687 2151 C 2705 2169 4366 3080 4375 3077 C 4381 3075 4447 2966 4522 2834 z M 2832 2697 C 2968 2619 3079 2553 3079 2550 C 3080 2547 2963 2481 2820 2402 L 2560 2259 L 2300 2402 C 2157 2481 2040 2547 2041 2550 C 2041 2563 2557 2850 2570 2844 C 2578 2841 2696 2775 2832 2697 z M 1434 1840 C 1803 1630 2076 1480 2091 1480 C 2124 1480 2148 1506 2329 1743 L 2480 1942 L 2480 1272 L 2480 601 L 2343 681 C 2267 725 1888 944 1500 1168 L 795 1576 L 792 1888 C 791 2060 792 2200 796 2200 C 799 2200 1086 2038 1434 1840 z M 4328 1888 L 4325 1576 L 3620 1168 C 3232 944 2853 725 2778 681 L 2640 601 L 2640 1272 L 2640 1942 L 2791 1743 C 2973 1505 2996 1480 3029 1480 C 3045 1480 3312 1627 3685 1840 C 4032 2037 4318 2199 4323 2200 C 4327 2200 4329 2060 4328 1888 z" stroke-linecap="round" />
</g>
</svg>