<?xml version="1.0" encoding="UTF-8" standalone="no" ?>
<!DOCTYPE svg PUBLIC "-//W3C//DTD SVG 1.1//EN" "http://www.w3.org/Graphics/SVG/1.1/DTD/svg11.dtd">
<svg xmlns="http://www.w3.org/2000/svg" xmlns:xlink="http://www.w3.org/1999/xlink" version="1.1" width="24" height="24" viewBox="0 0 24 24" xml:space="preserve">
<desc>Created with Fabric.js 5.3.0</desc>
<defs>
</defs>
<g transform="matrix(1.1426247708 0 0 1.1426247708 12.0031581041 12.0034905361)" id="_BfivdyUNL9oLO6W8OMF_"  >
<path style="stroke: none; stroke-width: 1; stroke-dasharray: none; stroke-linecap: butt; stroke-dashoffset: 0; stroke-linejoin: miter; stroke-miterlimit: 4; fill: rgb(255,115,29); fill-rule: nonzero; opacity: 1;"  transform=" translate(-12, -11)" d="M 9 10 L 9 12 L 7 12 L 7 10 L 9 10 M 13 10 L 13 12 L 11 12 L 11 10 L 13 10 M 17 10 L 17 12 L 15 12 L 15 10 L 17 10 M 19 3 C 20.104569499661586 3 21 3.8954305003384126 21 5 L 21 19 C 21 20.104569499661586 20.104569499661586 21 19 21 L 5 21 C 3.89 21 3 20.1 3 19 L 3 5 C 3 3.895430500338413 3.895430500338413 3 5 3 L 6 3 L 6 1 L 8 1 L 8 3 L 16 3 L 16 1 L 18 1 L 18 3 L 19 3 M 19 19 L 19 8 L 5 8 L 5 19 L 19 19 M 9 14 L 9 16 L 7 16 L 7 14 L 9 14 M 13 14 L 13 16 L 11 16 L 11 14 L 13 14 M 17 14 L 17 16 L 15 16 L 15 14 L 17 14 Z" stroke-linecap="round" />
</g>
</svg>