<?xml version="1.0" encoding="UTF-8" standalone="no" ?>
<!DOCTYPE svg PUBLIC "-//W3C//DTD SVG 1.1//EN" "http://www.w3.org/Graphics/SVG/1.1/DTD/svg11.dtd">
<svg xmlns="http://www.w3.org/2000/svg" xmlns:xlink="http://www.w3.org/1999/xlink" version="1.1" width="24" height="24" viewBox="0 0 24 24" xml:space="preserve">
<desc>Created with Fabric.js 5.3.0</desc>
<defs>
</defs>
<g transform="matrix(1.0424016289 0 0 1.0424016289 12.0212847089 12.021247692)" id="QUey1JfxVNUesJcRxNKqS"  >
<path style="stroke: none; stroke-width: 1; stroke-dasharray: none; stroke-linecap: butt; stroke-dashoffset: 0; stroke-linejoin: miter; stroke-miterlimit: 4; fill: rgb(67,25,185); fill-rule: nonzero; opacity: 1;"  transform=" translate(-12, -12.02)" d="M 9.05 9 L 7.06 9 L 7.06 6 L 9.05 6 L 9.05 4.03 L 7.06 4.03 L 7.06 3.03 C 7.06 1.92 7.95 1.04 9.05 1.04 L 15.03 1.04 L 15.03 8 L 17.5 6.5 L 20 8 L 20 1.04 L 21 1.04 C 22.05 1.04 23 2 23 3.03 L 23 17 C 23 18.03 22.05 19 21 19 L 9.05 19 C 8 19 7.06 18.05 7.06 17 L 7.06 16 L 9.05 16 L 9.05 14 L 7.06 14 L 7.06 11 L 9.05 11 L 9.05 9 M 1 18 L 3 18 L 3 15 L 1 15 L 1 13 L 3 13 L 3 10 L 1 10 L 1 8 L 3 8 L 3 5 L 5 5 L 5 8 L 3 8 L 3 10 L 5 10 L 5 13 L 3 13 L 3 15 L 5 15 L 5 18 L 3 18 L 3 20 L 5 20 L 5 21 L 21 21 L 21 23 L 5 23 C 3.895430500338413 23 3 22.104569499661586 3 21 L 3 20 L 1 20 L 1 18 Z" stroke-linecap="round" />
</g>
</svg>