<?xml version="1.0" encoding="UTF-8" standalone="no" ?>
<!DOCTYPE svg PUBLIC "-//W3C//DTD SVG 1.1//EN" "http://www.w3.org/Graphics/SVG/1.1/DTD/svg11.dtd">
<svg xmlns="http://www.w3.org/2000/svg" xmlns:xlink="http://www.w3.org/1999/xlink" version="1.1" width="24" height="24" viewBox="0 0 24 24" xml:space="preserve">
<desc>Created with Fabric.js 5.3.0</desc>
<defs>
</defs>
<g transform="matrix(1.2607620496 0 0 1.2607620496 11.9679477855 11.9679477855)" id="vLykl_TlrjN2wBZLh0KeW"  >
<path style="stroke: none; stroke-width: 1; stroke-dasharray: none; stroke-linecap: butt; stroke-dashoffset: 0; stroke-linejoin: miter; stroke-miterlimit: 4; fill: rgb(0,128,0); fill-rule: nonzero; opacity: 1;"  transform=" translate(-12, -12)" d="M 19 19 L 5 19 L 5 5 L 15 5 L 15 3 L 5 3 C 3.89 3 3 3.89 3 5 L 3 19 C 3 20.104569499661586 3.895430500338413 21 5 21 L 19 21 C 20.104569499661586 21 21 20.104569499661586 21 19 L 21 11 L 19 11 M 7.91 10.08 L 6.5 11.5 L 11 16 L 21 6 L 19.59 4.58 L 11 13.17 L 7.91 10.08 Z" stroke-linecap="round" />
</g>
</svg>