<?xml version="1.0" encoding="UTF-8" standalone="no" ?>
<!DOCTYPE svg PUBLIC "-//W3C//DTD SVG 1.1//EN" "http://www.w3.org/Graphics/SVG/1.1/DTD/svg11.dtd">
<svg xmlns="http://www.w3.org/2000/svg" xmlns:xlink="http://www.w3.org/1999/xlink" version="1.1" width="24" height="24" viewBox="0 0 24 24" xml:space="preserve">
<desc>Created with Fabric.js 5.3.0</desc>
<defs>
</defs>
<g transform="matrix(1.26067754 0 0 1.26067754 12.0212675995 12.0212648015)" id="cMRVj3navqTQJ9msvTWQx"  >
<path style="stroke: none; stroke-width: 1; stroke-dasharray: none; stroke-linecap: butt; stroke-dashoffset: 0; stroke-linejoin: miter; stroke-miterlimit: 4; fill: rgb(255,171,115); fill-rule: nonzero; opacity: 1;"  transform=" translate(-12.00125, -12)" d="M 14.06 9 L 15 9.94 L 5.92 19 L 5 19 L 5 18.08 L 14.06 9 M 17.66 3 C 17.41 3 17.15 3.1 16.96 3.29 L 15.13 5.12 L 18.88 8.87 L 20.71 7.04 C 21.1 6.65 21.1 6 20.71 5.63 L 18.37 3.29 C 18.17 3.09 17.92 3 17.66 3 M 14.06 6.19 L 3 17.25 L 3 21 L 6.75 21 L 17.81 9.94 L 14.06 6.19 Z" stroke-linecap="round" />
</g>
</svg>