<?xml version="1.0" encoding="UTF-8" standalone="no" ?>
<!DOCTYPE svg PUBLIC "-//W3C//DTD SVG 1.1//EN" "http://www.w3.org/Graphics/SVG/1.1/DTD/svg11.dtd">
<svg xmlns="http://www.w3.org/2000/svg" xmlns:xlink="http://www.w3.org/1999/xlink" version="1.1" width="24" height="24" viewBox="0 0 24 24" xml:space="preserve">
<desc>Created with Fabric.js 5.3.0</desc>
<defs>
</defs>
<g transform="matrix(1.2579424692 0 0 1.2579424692 11.9875779332 12.0124220668)" id="JRCbEbJi1MwvEiondxC6T"  >
<path style="stroke: none; stroke-width: 1; stroke-dasharray: none; stroke-linecap: butt; stroke-dashoffset: 0; stroke-linejoin: miter; stroke-miterlimit: 4; fill: rgb(255,171,115); fill-rule: nonzero; opacity: 1;"  transform=" translate(-12, -12)" d="M 15 9 L 5 9 L 5 5 L 15 5 M 12 19 C 10.34314575050762 19 9 17.65685424949238 9 16 C 9 14.34314575050762 10.34314575050762 13 12 13 C 13.65685424949238 13 15 14.343145750507619 15 16 C 15 17.65685424949238 13.65685424949238 19 12 19 M 17 3 L 5 3 C 3.89 3 3 3.9 3 5 L 3 19 C 3 20.104569499661586 3.895430500338413 21 5 21 L 19 21 C 20.104569499661586 21 21 20.104569499661586 21 19 L 21 7 L 17 3 Z" stroke-linecap="round" />
</g>
</svg>